<svg id="svg" version="1.1" xmlns="http://www.w3.org/2000/svg" xmlns:xlink="http://www.w3.org/1999/xlink" width="400" height="446.4985994397759" viewBox="0, 0, 400,446.4985994397759"><g id="svgg"><path id="path0" d="M194.818 0.308 C 189.725 0.839,183.846 2.521,178.837 4.880 C 175.016 6.680,24.875 93.350,21.289 95.827 C 9.766 103.783,2.418 115.910,0.515 130.112 C -0.029 134.174,-0.042 312.597,0.502 316.387 C 2.628 331.206,10.015 343.144,21.989 351.109 C 23.683 352.236,42.717 363.339,64.286 375.782 C 85.854 388.224,119.762 407.798,139.636 419.278 C 159.510 430.758,177.157 440.807,178.852 441.609 C 192.365 448.002,207.407 448.053,220.872 441.750 C 222.414 441.029,240.566 430.690,261.208 418.775 C 281.850 406.861,315.882 387.223,336.835 375.135 C 357.787 363.048,376.317 352.236,378.011 351.109 C 389.992 343.139,397.534 330.944,399.485 316.387 C 400.043 312.222,400.040 134.250,399.482 130.112 C 397.565 115.897,390.220 103.773,378.711 95.827 C 375.125 93.350,224.984 6.680,221.163 4.880 C 212.802 0.942,203.771 -0.625,194.818 0.308 M208.255 15.971 C 211.852 16.673,216.197 18.077,219.419 19.579 C 221.894 20.733,361.703 101.360,365.406 103.769 C 377.631 111.722,384.889 123.763,386.277 138.391 C 386.490 140.638,386.556 166.723,386.496 225.630 L 386.411 309.664 385.769 312.885 C 383.226 325.650,376.197 336.194,365.686 343.013 C 363.450 344.464,304.268 378.706,303.832 378.801 C 303.635 378.844,296.435 366.523,280.276 338.490 L 276.548 332.022 279.240 330.046 C 295.782 317.908,309.706 301.196,319.003 282.322 L 321.709 276.829 327.171 276.686 C 342.597 276.282,347.294 269.469,350.686 242.577 C 353.034 223.956,351.671 202.592,347.023 185.154 C 345.100 177.941,340.422 172.555,334.803 171.085 L 334.174 170.921 334.174 154.420 L 334.174 137.919 335.773 136.817 C 344.320 130.924,340.319 117.828,329.972 117.828 C 319.625 117.828,315.624 130.924,324.171 136.817 L 325.770 137.919 325.770 154.114 L 325.770 170.308 323.739 170.302 L 321.709 170.295 320.341 167.226 C 301.470 124.875,257.767 94.752,209.818 91.047 C 155.407 86.843,101.389 118.458,79.659 167.226 L 78.291 170.295 73.364 170.302 C 61.758 170.317,55.769 174.680,52.977 185.154 C 46.742 208.546,46.583 235.884,52.542 259.933 C 55.559 272.106,60.721 276.368,72.829 276.686 L 78.291 276.829 80.997 282.322 C 90.224 301.053,103.543 317.119,120.265 329.688 L 122.919 331.683 120.758 335.519 C 119.569 337.629,113.571 348.271,107.429 359.167 L 96.262 378.978 95.400 378.451 C 94.926 378.161,81.492 370.396,65.546 361.197 C 49.601 351.997,35.546 343.815,34.314 343.014 C 23.797 336.186,16.774 325.650,14.231 312.885 L 13.589 309.664 13.504 225.630 C 13.444 166.723,13.510 140.638,13.723 138.391 C 15.093 123.944,22.224 111.976,34.174 104.065 C 35.637 103.096,62.171 87.685,93.137 69.818 C 124.104 51.951,155.931 33.578,163.866 28.989 C 179.234 20.102,181.220 19.064,185.784 17.537 C 192.969 15.133,201.068 14.569,208.255 15.971 M214.006 102.929 C 306.850 114.450,352.960 221.227,297.300 295.815 C 243.693 367.649,133.353 358.679,92.267 279.145 C 52.292 201.764,103.632 110.162,191.317 102.417 C 194.620 102.126,210.400 102.481,214.006 102.929 M188.235 133.224 C 166.240 134.679,152.505 137.073,137.749 142.024 C 112.526 150.487,100.764 162.883,94.569 187.535 C 88.211 212.836,91.466 247.634,102.153 268.607 C 120.973 305.542,172.634 325.886,225.210 317.067 C 262.599 310.795,290.145 290.895,300.788 262.465 C 312.658 230.757,310.956 188.992,296.868 166.278 C 285.453 147.873,259.720 137.202,218.067 133.602 C 214.600 133.302,191.483 133.009,188.235 133.224 M218.908 146.057 C 247.861 148.739,269.202 154.863,278.695 163.215 C 293.245 176.016,299.192 203.828,294.105 235.294 C 289.670 262.733,278.907 278.982,257.297 290.860 C 253.303 293.055,253.418 293.090,255.288 290.248 C 271.754 265.220,273.434 209.061,258.510 182.542 C 246.750 161.646,224.027 149.440,190.336 145.921 C 188.641 145.745,187.192 145.536,187.115 145.459 C 186.776 145.117,214.361 145.636,218.908 146.057 M142.437 343.153 C 179.604 361.050,222.943 360.611,259.944 341.963 C 264.996 339.417,265.434 339.247,265.771 339.703 C 267.274 341.735,269.766 346.597,269.424 346.832 C 268.057 347.774,256.480 353.217,252.661 354.714 C 217.829 368.363,180.472 368.138,145.518 354.068 C 141.995 352.650,131.161 347.454,130.195 346.720 C 129.762 346.391,129.910 346.021,131.865 342.555 L 134.011 338.751 135.983 339.873 C 137.068 340.490,139.972 341.966,142.437 343.153 M129.307 360.984 C 148.104 370.523,169.119 376.272,189.776 377.527 L 193.137 377.731 193.209 404.518 L 193.280 431.306 191.108 430.902 C 188.008 430.325,182.738 428.513,179.591 426.941 C 177.635 425.964,108.213 386.058,107.620 385.570 C 107.488 385.461,123.374 357.990,123.529 358.060 C 123.606 358.095,126.206 359.411,129.307 360.984 M284.256 371.569 C 288.429 378.810,291.917 384.928,292.007 385.164 C 292.146 385.530,229.713 421.969,221.130 426.531 C 217.566 428.425,212.618 430.086,207.073 431.251 L 206.443 431.383 206.443 404.657 C 206.443 380.545,206.486 377.914,206.886 377.761 C 207.129 377.668,207.991 377.591,208.801 377.591 C 225.464 377.591,251.508 370.599,270.448 361.041 C 273.683 359.408,276.407 358.147,276.499 358.238 C 276.592 358.329,280.083 364.328,284.256 371.569 " stroke="none" fill="#000000" fill-rule="evenodd"></path></g></svg>
