<svg version="1.1" xmlns="http://www.w3.org/2000/svg" xmlns:xlink="http://www.w3.org/1999/xlink" x="0px" y="0px" viewBox="0 0 1000 1000" enable-background="new 0 0 1000 1000" xml:space="preserve">
  <metadata> Svg Vector Icons : http://www.onlinewebfonts.com/icon </metadata>
  <g>
    <path d="M500,10C229.4,10,10,229.4,10,500s219.4,490,490,490s490-219.4,490-490S770.6,10,500,10z M104.3,319.3l94.2,43c37.5-75.5,100.2-134.2,178.8-166.8c86.2-35.7,181.1-35.7,267.3,0c86.2,35.7,153.3,102.8,189,189l-82.2,34.1c-26.6-64.2-76.6-114.2-140.8-140.8c-64.2-26.6-134.9-26.6-199.2,0c-57.6,23.9-103.8,66.6-131.9,121.5L383.9,447l-203.7,75.9L104.3,319.3z M801.5,637.7C764,713.2,701.3,771.9,622.7,804.5c-86.2,35.7-181.1,35.7-267.3,0c-86.2-35.7-153.3-102.8-189-189l82.2-34.1c26.6,64.2,76.6,114.2,140.8,140.8c64.2,26.6,134.9,26.6,199.1,0c57.6-23.9,103.8-66.7,131.8-121.6L616,553l203.7-75.9l75.9,203.6L801.5,637.7z" />
  </g>
</svg>
